FFmpeg version SVN-r25716, Copyright (c) 2000-2010 the FFmpeg developers  built on Nov 10 2010 12:23:18 with gcc 4.1.2 20080704 (Red Hat 4.1.2-48)  configuration: --enable-libmp3lame --enable-shared --disable-mmx --arch=x86_64  libavutil     50.33. 0 / 50.33. 0  libavcore      0.12. 1 /  0.12. 1  libavcodec    52.94. 4 / 52.94. 4  libavformat   52.84. 0 / 52.84. 0  libavdevice   52. 2. 2 / 52. 2. 2  libavfilter    1.59. 0 /  1.59. 0  libswscale     0.12. 0 /  0.12. 0Seems stream 0 codec frame rate differs from container frame rate: 50.00 (50/1) -> 7.14 (50/7)Input #0, avi, from '/RAID10/data/converted_video_files/36812.avi':  Metadata:    encoder         : Lavf52.81.0  Duration: 00:00:11.06, start: 0.000000, bitrate: 255 kb/s    Stream #0.0: Video: mpeg4, yuv420p, 234x234 [PAR 1:1 DAR 1:1], 7.14 tbr, 7.14 tbn, 50 tbc[buffer @ 0x13705d10] w:234 h:234 pixfmt:yuv420pOutput #0, flv, to '/RAID10/data/converted_video_files/36812.flv':  Metadata:    encoder         : Lavf52.84.0    Stream #0.0: Video: flv, yuv420p, 234x234 [PAR 1:1 DAR 1:1], q=2-31, 600 kb/s, 1k tbn, 24 tbcStream mapping:  Stream #0.0 -> #0.0Press [q] to stop encodingframe=   79 fps=  0 q=2.0 Lsize=     426kB time=10.96 bitrate= 318.3kbits/s    video:424kB audio:0kB global headers:0kB muxing overhead 0.339163%